<?xml version="1.0" encoding="UTF-8"?>
<svg id="Layer_2" data-name="Layer 2" xmlns="http://www.w3.org/2000/svg" viewBox="0 0 212.05 270.1">
  <defs>
    <style>
      .cls-1 {
        fill: #fff;
        stroke-width: 0px;
      }
    </style>
  </defs>
  <g id="Brand_Manual" data-name="Brand Manual">
    <g id="_3" data-name="3">
      <g id="logo_blanco">
        <g>
          <g>
            <path class="cls-1" d="M212.05,54.7h-28.85c-24.48-27.51-62.22-38.55-96.16-28.08-41.2,12.72-67.13,54.18-63.47,95.01,3.95,43.99,40.49,67.58,45,70.39-4.49,6.67-8.97,13.33-13.46,20C51.03,209.51,2.78,178.74.11,119.71-1.75,78.41,19.4,39.03,55.12,17.01c6.64-4.11,40.79-24.29,85.01-14.23,45.92,10.45,68.12,45.66,71.93,51.93Z"/>
            <polygon class="cls-1" points="82.43 223.94 152.05 195.48 203.59 270.1 82.43 223.94"/>
          </g>
          <path class="cls-1" d="M64.35,217.41c14.26-5.93,36.33-14.93,63.85-25.39,28.34-10.77,37.97-13.43,47.7-23.08,17.42-17.27,20.48-41.9,20.65-58.09-.08-3.73-.51-8.65-2-14.2-7.14-26.54-34.42-52.28-68.26-54.25-40.48-2.36-65.23,30.73-66.93,33.08h21.16c4.45-5.16,15.89-16.91,33.46-19.62,28.15-4.34,56.91,16.83,65,43.85,6.21,20.73-1.73,38.31-3.46,41.93-10.56,22.09-35.92,38.52-59.23,34.23-7.87-1.45-13.87-4.96-17.69-7.69-11.41,16.41-22.82,32.82-34.23,49.23Z"/>
          <g>
            <circle class="cls-1" cx="90.5" cy="114.32" r="10"/>
            <circle class="cls-1" cx="119.61" cy="114.32" r="10"/>
            <circle class="cls-1" cx="148.97" cy="114.32" r="10"/>
          </g>
        </g>
      </g>
    </g>
  </g>
</svg>