<?xml version="1.0" encoding="UTF-8"?>
<svg id="Layer_1" data-name="Layer 1" xmlns="http://www.w3.org/2000/svg" viewBox="0 0 1000 1000">
  <defs>
    <style>
      .cls-1 {
        fill: #fff;
        stroke-width: 0px;
      }
    </style>
  </defs>
  <g>
    <path class="cls-1" d="M790,282.42h-84.4c-71.62-80.48-182.05-112.8-281.35-82.15-120.55,37.21-196.42,158.51-185.69,277.97,11.56,128.71,118.47,197.73,131.67,205.95-13.13,19.51-26.26,39.01-39.39,58.52-11.95-7.33-153.12-97.38-160.93-270.09-5.46-120.83,56.43-236.05,160.93-300.48,19.43-12.02,119.36-71.07,248.71-41.64,134.37,30.57,199.32,133.6,210.45,151.93Z"/>
    <polygon class="cls-1" points="410.74 777.59 614.44 694.31 765.24 912.64 410.74 777.59"/>
  </g>
  <path class="cls-1" d="M357.85,758.46c41.72-17.35,106.29-43.67,186.82-74.28,82.93-31.52,111.09-39.3,139.55-67.52,50.97-50.54,59.93-122.59,60.42-169.96-.22-10.91-1.49-25.31-5.87-41.55-20.9-77.65-100.7-152.96-199.73-158.74-118.44-6.91-190.86,89.92-195.82,96.78h61.9c13.01-15.09,46.48-49.47,97.91-57.4,82.37-12.7,166.52,49.24,190.19,128.29,18.16,60.65-5.07,112.08-10.13,122.67-30.91,64.62-105.1,112.7-173.31,100.16-23.03-4.23-40.59-14.5-51.77-22.51-33.39,48.02-66.77,96.03-100.16,144.05Z"/>
  <g>
    <circle class="cls-1" cx="434.38" cy="456.85" r="29.26"/>
    <circle class="cls-1" cx="519.53" cy="456.85" r="29.26"/>
    <circle class="cls-1" cx="605.44" cy="456.85" r="29.26"/>
  </g>
</svg>