<?xml version="1.0" standalone="no"?>
<!DOCTYPE svg PUBLIC "-//W3C//DTD SVG 20010904//EN"
 "http://www.w3.org/TR/2001/REC-SVG-20010904/DTD/svg10.dtd">
<svg version="1.0" xmlns="http://www.w3.org/2000/svg"
 width="700.000000pt" height="700.000000pt" viewBox="0 0 700.000000 700.000000"
 preserveAspectRatio="xMidYMid meet">
<metadata>
Created by potrace 1.14, written by Peter Selinger 2001-2017
</metadata>
<g transform="translate(0.000000,700.000000) scale(0.100000,-0.100000)"
fill="#000000" stroke="none">
<path d="M3507 6144 c-1 -1 -51 -4 -112 -8 -442 -26 -908 -199 -1264 -469
-422 -320 -710 -740 -855 -1244 -41 -143 -61 -247 -81 -432 -6 -48 -6 -336 0
-386 4 -38 7 -62 20 -165 4 -25 13 -74 21 -110 9 -36 18 -76 20 -90 22 -116
151 -428 239 -580 131 -224 340 -474 547 -651 124 -107 159 -133 249 -191 l27
-17 34 52 c18 29 80 121 137 205 57 84 102 155 100 156 -2 2 -22 15 -44 28
-114 71 -334 271 -437 396 -29 36 -58 70 -63 76 -50 53 -189 290 -239 409 -9
20 -22 52 -30 70 -19 43 -72 231 -85 303 -37 200 -34 465 9 674 148 717 682
1284 1370 1454 237 58 505 67 750 25 85 -14 95 -17 178 -39 308 -83 595 -249
841 -485 l103 -100 294 -1 294 0 -15 23 c-8 13 -23 35 -32 51 -100 159 -351
428 -518 555 -221 168 -445 289 -685 371 -79 27 -302 82 -367 91 -21 3 -51 7
-68 10 -62 9 -331 25 -338 19z"/>
<path d="M3578 5275 c-2 -2 -30 -5 -63 -9 -334 -34 -718 -238 -985 -522 -120
-129 -125 -135 -113 -142 6 -4 102 -7 212 -6 l201 1 83 79 c97 93 114 107 188
156 104 69 259 137 349 153 14 3 36 8 50 11 53 14 276 13 354 -1 350 -63 678
-294 873 -615 69 -114 133 -275 149 -371 3 -24 9 -55 11 -69 3 -14 7 -79 8
-145 12 -413 -183 -793 -538 -1049 -98 -71 -252 -146 -374 -182 -122 -36 -338
-43 -457 -13 -82 20 -217 79 -281 122 l-38 26 -56 -79 c-78 -110 -604 -869
-625 -901 -15 -24 7 -17 241 78 142 58 267 109 278 114 18 8 164 65 520 204
169 66 480 185 540 206 95 33 308 120 384 155 231 110 413 292 535 538 78 156
113 258 145 432 31 165 33 176 36 364 4 196 -6 274 -57 425 -149 444 -539 818
-1008 970 -63 20 -126 38 -140 40 -14 2 -34 6 -45 8 -66 15 -366 32 -377 22z"/>
<path d="M2993 4001 c-190 -48 -210 -310 -31 -386 113 -46 243 17 274 134 13
51 13 53 0 111 -23 97 -142 166 -243 141z"/>
<path d="M3595 4003 c-101 -21 -177 -128 -161 -228 32 -198 298 -241 385 -62
47 98 6 222 -91 273 -28 15 -100 24 -133 17z"/>
<path d="M4190 4002 c-46 -6 -104 -55 -132 -110 -86 -170 83 -350 260 -276
131 54 164 229 64 330 -49 48 -114 67 -192 56z"/>
<path d="M4175 2088 c-66 -27 -212 -87 -325 -133 -194 -78 -221 -89 -295 -120
-16 -7 -115 -48 -220 -90 -104 -43 -242 -99 -305 -125 -63 -26 -124 -50 -135
-54 -24 -9 -70 10 655 -266 162 -62 351 -134 420 -160 69 -26 211 -80 315
-119 105 -40 199 -76 210 -81 19 -8 125 -49 643 -245 112 -42 205 -75 207 -73
3 2 -18 35 -45 74 -63 87 -55 76 -160 229 -49 72 -98 144 -110 160 -21 29 -96
138 -428 620 -83 121 -155 225 -159 230 -5 6 -35 50 -68 98 -33 49 -64 92 -70
97 -6 4 -61 -13 -130 -42z"/>
</g>
</svg>
